<svg xmlns="http://www.w3.org/2000/svg" viewBox="0 0 110 140" role="img" aria-label="hourglass">
  <defs>
    <filter id="s" x="-20%" y="-20%" width="140%" height="140%">
      <feDropShadow dx="3" dy="5" stdDeviation="3" flood-color="#1f160f" flood-opacity=".45"/>
    </filter>
  </defs>
  <g filter="url(#s)" stroke="#2d2419" stroke-width="5" stroke-linejoin="round">
    <path d="M22 10h66v15H22zM22 115h66v15H22z" fill="#6b4b2b"/>
    <path d="M34 25c0 25 12 33 21 43-9 10-21 18-21 47h42c0-29-12-37-21-47 9-10 21-18 21-43z" fill="#d6c49a" opacity=".82"/>
    <path d="M42 39h27c-2 13-8 20-14 26-6-6-11-13-13-26zM38 106c3-18 12-25 17-31 5 6 14 13 17 31z" fill="#b78b40"/>
    <path d="M36 25v90M74 25v90" fill="none"/>
  </g>
</svg>
