<svg xmlns="http://www.w3.org/2000/svg" viewBox="0 0 140 140" role="img" aria-label="key">
  <defs>
    <filter id="s" x="-20%" y="-20%" width="140%" height="140%">
      <feDropShadow dx="3" dy="5" stdDeviation="3" flood-color="#1f160f" flood-opacity=".45"/>
    </filter>
  </defs>
  <g filter="url(#s)" fill="none" stroke="#2d2419" stroke-width="6" stroke-linecap="round" stroke-linejoin="round">
    <path d="M86 23c18 2 31 18 29 36s-19 31-37 28c-7-1-13-4-18-8L29 110l-15-2-2-15 31-31c-3-6-4-12-3-19 3-17 19-29 46-20z" fill="#7b6848"/>
    <path d="M74 49c1-10 10-18 20-16s17 11 15 21c-1 10-11 17-21 15s-16-10-14-20z" fill="#ead8ad"/>
    <path d="M42 83l-14 14 12 12"/>
    <path d="M30 95l12 1"/>
    <path d="M50 75l-20 20"/>
  </g>
</svg>
